<svg width="96" height="32" viewBox="0 0 96 32" fill="none" xmlns="http://www.w3.org/2000/svg">
<path d="M24.6364 6.46744C23.891 5.77688 23.5183 4.91527 23.5183 3.89527C23.5183 2.84993 23.891 1.97565 24.6364 1.2851C25.3818 0.59454 26.342 0.246094 27.5107 0.246094C28.6604 0.246094 29.6079 0.59454 30.347 1.2851C31.0924 1.97565 31.4588 2.84993 31.4588 3.89527C31.4588 4.91527 31.0861 5.77688 30.347 6.46744C29.6016 7.15799 28.6541 7.50644 27.5107 7.50644C26.3357 7.50644 25.3755 7.15799 24.6364 6.46744Z" fill="white"/>
<path d="M30.8335 9.39453H24.1438V31.9992H30.8335V9.39453Z" fill="white"/>
<path d="M39.2603 26.1516H51.7617V31.9992H31.7809V26.348L40.8585 15.3181H31.7114V9.39453H48.5337V15.1217L39.2603 26.1516Z" fill="white"/>
<path d="M54.9961 26.1516H64.2821V31.9992H47.523V26.348L56.6006 15.3181H45.0215V9.39453H64.2758V15.1217L54.9961 26.1516Z" fill="white"/>
<path d="M65.7036 6.46744C64.9581 5.77688 64.5854 4.91527 64.5854 3.89527C64.5854 2.84993 64.9581 1.97565 65.7036 1.2851C66.449 0.59454 67.4092 0.246094 68.5778 0.246094C69.7275 0.246094 70.6751 0.59454 71.4142 1.2851C72.1596 1.97565 72.526 2.84993 72.526 3.89527C72.526 4.91527 72.1533 5.77688 71.4142 6.46744C70.6688 7.15799 69.7212 7.50644 68.5778 7.50644C67.4028 7.50644 66.449 7.15799 65.7036 6.46744Z" fill="white"/>
<path d="M71.9004 9.39453H65.2107V31.9992H71.9004V9.39453Z" fill="white"/>
<path d="M5.57785 30.625C3.87225 29.7127 2.52672 28.4013 1.54758 26.7034C0.568443 24.9992 0.0820312 23.0099 0.0820312 20.7355C0.0820312 18.4864 0.57476 16.5034 1.56653 14.7866C2.55831 13.0697 3.91647 11.7583 5.63471 10.8396C7.35926 9.92733 9.28595 9.46484 11.4274 9.46484C13.5689 9.46484 15.4956 9.92099 17.2202 10.8396C18.9447 11.7583 20.2965 13.0697 21.2883 14.7866C22.2801 16.5034 22.7728 18.4801 22.7728 20.7355C22.7728 22.9909 22.2738 24.9675 21.2631 26.6844C20.2523 28.4013 18.8879 29.7127 17.1507 30.6313C15.4135 31.55 13.4741 32.0061 11.339 32.0061C9.21647 31.9998 7.28977 31.5436 5.57785 30.625ZM14.6238 24.7775C15.5209 23.8335 15.9757 22.484 15.9757 20.7355C15.9757 18.9806 15.5398 17.6375 14.6618 16.6935C13.79 15.7495 12.7098 15.2807 11.4337 15.2807C10.1324 15.2807 9.04591 15.7432 8.18679 16.6745C7.32767 17.5995 6.89811 18.9552 6.89811 20.7355C6.89811 22.4904 7.32136 23.8398 8.16784 24.7775C9.01432 25.7214 10.0819 26.1902 11.3579 26.1902C12.634 26.1902 13.7205 25.7214 14.6238 24.7775Z" fill="white"/>
<path d="M6.68965 0.246094V21.8877L0.0883483 21.1782L0.0820312 0.246094H6.68965Z" fill="white"/>
<path d="M78.6723 30.625C76.9604 29.7127 75.6212 28.4013 74.6421 26.7034C73.6629 24.9992 73.1765 23.0162 73.1765 20.7355C73.1765 18.4864 73.6692 16.5034 74.661 14.7866C75.6528 13.0697 77.011 11.7583 78.7292 10.8396C80.4537 9.92733 82.3804 9.46484 84.5219 9.46484C86.6634 9.46484 88.5901 9.92099 90.3146 10.8396C92.0392 11.7583 93.391 13.0697 94.3828 14.7866C95.3746 16.5034 95.8673 18.4801 95.8673 20.7355C95.8673 22.9909 95.3683 24.9675 94.3575 26.6844C93.3531 28.4013 91.9823 29.7127 90.2451 30.6313C88.508 31.55 86.5686 32.0061 84.4335 32.0061C82.3109 31.9998 80.3842 31.5436 78.6723 30.625ZM87.7183 24.7775C88.6153 23.8335 89.0702 22.484 89.0702 20.7355C89.0702 18.9806 88.6343 17.6375 87.7562 16.6935C86.8845 15.7495 85.8043 15.2807 84.5282 15.2807C83.2269 15.2807 82.1404 15.7432 81.2813 16.6745C80.4221 17.5995 79.9926 18.9552 79.9926 20.7355C79.9926 22.4904 80.4158 23.8398 81.2623 24.7775C82.1088 25.7214 83.1764 26.1902 84.4524 26.1902C85.7285 26.1902 86.815 25.7214 87.7183 24.7775Z" fill="white"/>
</svg>
